<svg width="164" height="40" viewBox="0 0 164 40" fill="none" xmlns="http://www.w3.org/2000/svg">
<path d="M8.53338 4.27273V37H3.59553V4.27273H8.53338ZM20.119 22.4261V37H15.3409V12.4545H19.9272V16.4496H20.2308C20.7955 15.1499 21.6797 14.1058 22.8835 13.3175C24.098 12.5291 25.6268 12.1349 27.4698 12.1349C29.1424 12.1349 30.6072 12.4865 31.8643 13.1896C33.1214 13.8821 34.0962 14.9155 34.7887 16.2898C35.4812 17.6641 35.8274 19.3633 35.8274 21.3874V37H31.0494V21.9627C31.0494 20.1836 30.5859 18.7933 29.6591 17.7919C28.7322 16.7798 27.4592 16.2738 25.8398 16.2738C24.7319 16.2738 23.7464 16.5135 22.8835 16.9929C22.0313 17.4723 21.3548 18.1754 20.854 19.1023C20.364 20.0185 20.119 21.1264 20.119 22.4261ZM60.6286 18.4471L56.2979 19.2141C56.1168 18.6602 55.8292 18.1328 55.435 17.6321C55.0515 17.1314 54.5295 16.7212 53.869 16.4016C53.2085 16.082 52.3828 15.9222 51.392 15.9222C50.0391 15.9222 48.9098 16.2259 48.0043 16.8331C47.0987 17.4297 46.646 18.2021 46.646 19.1502C46.646 19.9705 46.9496 20.631 47.5568 21.1317C48.1641 21.6325 49.1442 22.0426 50.4972 22.3622L54.3963 23.2571C56.6548 23.7791 58.3381 24.5835 59.446 25.6701C60.554 26.7567 61.108 28.1683 61.108 29.9048C61.108 31.375 60.6818 32.6854 59.8295 33.8359C58.9879 34.9759 57.8107 35.8707 56.2979 36.5206C54.7958 37.1705 53.054 37.4954 51.0724 37.4954C48.3239 37.4954 46.0813 36.9094 44.3448 35.7376C42.6083 34.555 41.543 32.8771 41.1488 30.7038L45.767 30.0007C46.0547 31.2045 46.646 32.1154 47.5408 32.7333C48.4357 33.3406 49.6023 33.6442 51.0405 33.6442C52.6065 33.6442 53.8583 33.3192 54.7958 32.6694C55.7333 32.0089 56.2021 31.2045 56.2021 30.2564C56.2021 29.4893 55.9144 28.8448 55.3391 28.3228C54.7745 27.8008 53.9062 27.4066 52.7344 27.1403L48.5795 26.2294C46.2891 25.7074 44.5952 24.8764 43.4979 23.7365C42.4112 22.5966 41.8679 21.1531 41.8679 19.4059C41.8679 17.957 42.2727 16.6893 43.0824 15.6026C43.892 14.516 45.0107 13.669 46.4382 13.0618C47.8658 12.4439 49.5011 12.1349 51.3441 12.1349C53.9968 12.1349 56.0849 12.7102 57.6083 13.8608C59.1317 15.0007 60.1385 16.5295 60.6286 18.4471ZM77.8192 12.4545V16.2898H64.4118V12.4545H77.8192ZM68.0074 6.57386H72.7854V29.793C72.7854 30.7198 72.9239 31.4176 73.2009 31.8864C73.4779 32.3445 73.8348 32.6587 74.2716 32.8292C74.719 32.989 75.2037 33.0689 75.7258 33.0689C76.1093 33.0689 76.4449 33.0423 76.7325 32.989C77.0202 32.9357 77.2439 32.8931 77.4037 32.8612L78.2666 36.8082C77.9896 36.9148 77.5954 37.0213 77.0841 37.1278C76.5727 37.245 75.9335 37.3089 75.1665 37.3196C73.9094 37.3409 72.7375 37.1172 71.6508 36.6484C70.5642 36.1797 69.6853 35.4553 69.0141 34.4751C68.343 33.495 68.0074 32.2646 68.0074 30.7837V6.57386ZM93.4197 37.4954C91.0014 37.4954 88.9187 36.9787 87.1715 35.9453C85.435 34.9013 84.0927 33.4364 83.1445 31.5508C82.207 29.6545 81.7383 27.4332 81.7383 24.8871C81.7383 22.3729 82.207 20.157 83.1445 18.2393C84.0927 16.3217 85.4137 14.8249 87.1076 13.7489C88.8121 12.6729 90.8043 12.1349 93.0842 12.1349C94.4691 12.1349 95.8114 12.364 97.1112 12.8221C98.4109 13.2802 99.5774 13.9993 100.611 14.9794C101.644 15.9595 102.459 17.2326 103.056 18.7987C103.652 20.354 103.951 22.245 103.951 24.4716V26.1655H84.4389V22.5859H99.2685C99.2685 21.3288 99.0128 20.2156 98.5014 19.2461C97.9901 18.266 97.271 17.4936 96.3441 16.929C95.4279 16.3643 94.3519 16.082 93.1161 16.082C91.7738 16.082 90.6019 16.4123 89.6005 17.0728C88.6097 17.7227 87.8427 18.5749 87.2994 19.6296C86.7667 20.6736 86.5004 21.8082 86.5004 23.0334V25.8299C86.5004 27.4705 86.788 28.8661 87.3633 30.0167C87.9492 31.1673 88.7642 32.0462 89.8082 32.6534C90.8523 33.25 92.0721 33.5483 93.4677 33.5483C94.3732 33.5483 95.1989 33.4205 95.9446 33.1648C96.6903 32.8984 97.3349 32.5043 97.8782 31.9822C98.4215 31.4602 98.837 30.8157 99.1246 30.0487L103.647 30.8636C103.285 32.1953 102.635 33.3619 101.697 34.3633C100.771 35.354 99.604 36.1264 98.1978 36.6804C96.8022 37.2237 95.2095 37.4954 93.4197 37.4954ZM114.03 4.27273V37H109.252V4.27273H114.03ZM125.236 4.27273V37H120.458V4.27273H125.236ZM142.003 37.4954C139.702 37.4954 137.694 36.968 135.979 35.9134C134.264 34.8587 132.932 33.3832 131.984 31.4869C131.036 29.5906 130.562 27.3746 130.562 24.8391C130.562 22.293 131.036 20.0664 131.984 18.1594C132.932 16.2525 134.264 14.7717 135.979 13.717C137.694 12.6623 139.702 12.1349 142.003 12.1349C144.304 12.1349 146.313 12.6623 148.028 13.717C149.743 14.7717 151.075 16.2525 152.023 18.1594C152.971 20.0664 153.445 22.293 153.445 24.8391C153.445 27.3746 152.971 29.5906 152.023 31.4869C151.075 33.3832 149.743 34.8587 148.028 35.9134C146.313 36.968 144.304 37.4954 142.003 37.4954ZM142.019 33.4844C143.511 33.4844 144.747 33.0902 145.727 32.3018C146.707 31.5135 147.431 30.4641 147.9 29.1538C148.379 27.8434 148.619 26.3999 148.619 24.8232C148.619 23.2571 148.379 21.8189 147.9 20.5085C147.431 19.1875 146.707 18.1275 145.727 17.3285C144.747 16.5295 143.511 16.13 142.019 16.13C140.517 16.13 139.271 16.5295 138.28 17.3285C137.3 18.1275 136.57 19.1875 136.091 20.5085C135.622 21.8189 135.388 23.2571 135.388 24.8232C135.388 26.3999 135.622 27.8434 136.091 29.1538C136.57 30.4641 137.3 31.5135 138.28 32.3018C139.271 33.0902 140.517 33.4844 142.019 33.4844Z" fill="url(#paint0_linear_801_218)"/>
<defs>
<linearGradient id="paint0_linear_801_218" x1="69" y1="-8" x2="97.5" y2="47" gradientUnits="userSpaceOnUse">
<stop stop-color="#ED7DFF"/>
<stop offset="1" stop-color="#FF2640"/>
</linearGradient>
</defs>
</svg>
