<svg width="164" height="40" viewBox="0 0 164 40" fill="none" xmlns="http://www.w3.org/2000/svg">
<path d="M9.15661 4.27273V37H3.22798V4.27273H9.15661ZM21.1057 22.6179V37H15.3209V12.4545H20.8501V16.6254H21.1377C21.7023 15.2511 22.6025 14.1591 23.8383 13.3494C25.0848 12.5398 26.6242 12.1349 28.4566 12.1349C30.1505 12.1349 31.626 12.4972 32.8831 13.2216C34.1508 13.946 35.1309 14.9954 35.8234 16.3697C36.5265 17.744 36.8728 19.4112 36.8621 21.3714V37H31.0773V22.2663C31.0773 20.6257 30.6512 19.342 29.7989 18.4151C28.9573 17.4883 27.7907 17.0249 26.2993 17.0249C25.2872 17.0249 24.387 17.2486 23.5986 17.696C22.8209 18.1328 22.2084 18.7667 21.7609 19.5977C21.3241 20.4286 21.1057 21.4354 21.1057 22.6179ZM62.1427 18.9425L56.8692 19.5178C56.7201 18.9851 56.4591 18.4844 56.0862 18.0156C55.724 17.5469 55.2339 17.1687 54.616 16.881C53.9981 16.5934 53.2417 16.4496 52.3469 16.4496C51.143 16.4496 50.1309 16.7106 49.3106 17.2326C48.501 17.7546 48.1015 18.4311 48.1121 19.2621C48.1015 19.9759 48.3625 20.5565 48.8952 21.0039C49.4385 21.4513 50.3334 21.8189 51.5798 22.1065L55.7666 23.0014C58.089 23.5021 59.8149 24.2958 60.9442 25.3825C62.0841 26.4691 62.6594 27.8913 62.67 29.6491C62.6594 31.1939 62.2066 32.5575 61.3117 33.7401C60.4275 34.9119 59.197 35.8281 57.6203 36.4886C56.0436 37.1491 54.2325 37.4794 52.1871 37.4794C49.1828 37.4794 46.7645 36.8509 44.9321 35.5938C43.0997 34.326 42.0077 32.5629 41.6562 30.3043L47.2971 29.761C47.5528 30.869 48.0961 31.7053 48.9271 32.2699C49.7581 32.8345 50.8394 33.1168 52.1711 33.1168C53.5454 33.1168 54.648 32.8345 55.479 32.2699C56.3206 31.7053 56.7414 31.0075 56.7414 30.1765C56.7414 29.4734 56.4697 28.8928 55.9264 28.4347C55.3937 27.9766 54.5628 27.625 53.4335 27.38L49.2467 26.5011C46.8923 26.011 45.1505 25.1854 44.0212 24.0241C42.892 22.8523 42.3327 21.3714 42.3433 19.5817C42.3327 18.0689 42.7428 16.7585 43.5738 15.6506C44.4154 14.532 45.5819 13.669 47.0734 13.0618C48.5756 12.4439 50.3067 12.1349 52.267 12.1349C55.1434 12.1349 57.4072 12.7475 59.0585 13.9727C60.7204 15.1978 61.7485 16.8544 62.1427 18.9425ZM79.6968 12.4545V16.929H65.5864V12.4545H79.6968ZM69.07 6.57386H74.8548V29.6172C74.8548 30.3949 74.972 30.9915 75.2064 31.407C75.4514 31.8118 75.771 32.0888 76.1652 32.2379C76.5594 32.3871 76.9962 32.4616 77.4756 32.4616C77.8378 32.4616 78.1681 32.435 78.4664 32.3817C78.7753 32.3285 79.0097 32.2805 79.1695 32.2379L80.1443 36.7603C79.8353 36.8668 79.3932 36.984 78.8179 37.1119C78.2533 37.2397 77.5608 37.3143 76.7405 37.3356C75.2916 37.3782 73.9866 37.1598 72.8254 36.6804C71.6642 36.1903 70.7426 35.4339 70.0608 34.4112C69.3896 33.3885 69.0594 32.1101 69.07 30.576V6.57386ZM95.1376 37.4794C92.6767 37.4794 90.5513 36.968 88.7615 35.9453C86.9824 34.9119 85.6135 33.4524 84.6547 31.5668C83.6958 29.6705 83.2164 27.4386 83.2164 24.8711C83.2164 22.3462 83.6958 20.1303 84.6547 18.2234C85.6241 16.3058 86.9771 14.8143 88.7136 13.7489C90.4501 12.6729 92.4902 12.1349 94.834 12.1349C96.3468 12.1349 97.7743 12.38 99.1167 12.87C100.47 13.3494 101.663 14.0952 102.696 15.1072C103.74 16.1193 104.561 17.4084 105.157 18.9744C105.754 20.5298 106.052 22.3835 106.052 24.5355V26.3093H85.9331V22.4102H100.507C100.496 21.3022 100.257 20.3168 99.7878 19.4538C99.3191 18.5803 98.6639 17.8931 97.8223 17.3924C96.9913 16.8917 96.0218 16.6413 94.9139 16.6413C93.7314 16.6413 92.6926 16.929 91.7978 17.5043C90.9029 18.0689 90.2051 18.8146 89.7044 19.7415C89.2143 20.6577 88.964 21.6644 88.9533 22.7617V26.1655C88.9533 27.593 89.2143 28.8182 89.7363 29.8409C90.2583 30.853 90.9881 31.6307 91.9256 32.174C92.8631 32.7067 93.9604 32.973 95.2175 32.973C96.0591 32.973 96.8208 32.8558 97.5027 32.6214C98.1845 32.3764 98.7757 32.0195 99.2765 31.5508C99.7772 31.082 100.155 30.5014 100.411 29.8089L105.812 30.4162C105.471 31.8437 104.822 33.0902 103.863 34.1555C102.915 35.2102 101.7 36.0305 100.219 36.6165C98.7385 37.1918 97.0446 37.4794 95.1376 37.4794ZM116.731 4.27273V37H110.946V4.27273H116.731ZM128.464 4.27273V37H122.679V4.27273H128.464ZM145.119 37.4794C142.722 37.4794 140.645 36.9521 138.887 35.8974C137.129 34.8427 135.766 33.3672 134.796 31.4709C133.837 29.5746 133.358 27.3587 133.358 24.8232C133.358 22.2876 133.837 20.0664 134.796 18.1594C135.766 16.2525 137.129 14.7717 138.887 13.717C140.645 12.6623 142.722 12.1349 145.119 12.1349C147.516 12.1349 149.594 12.6623 151.352 13.717C153.109 14.7717 154.468 16.2525 155.427 18.1594C156.396 20.0664 156.881 22.2876 156.881 24.8232C156.881 27.3587 156.396 29.5746 155.427 31.4709C154.468 33.3672 153.109 34.8427 151.352 35.8974C149.594 36.9521 147.516 37.4794 145.119 37.4794ZM145.151 32.8452C146.451 32.8452 147.538 32.4883 148.411 31.7745C149.285 31.0501 149.935 30.0806 150.361 28.8661C150.798 27.6516 151.016 26.2987 151.016 24.8072C151.016 23.305 150.798 21.9467 150.361 20.7322C149.935 19.5071 149.285 18.5323 148.411 17.8079C147.538 17.0835 146.451 16.7212 145.151 16.7212C143.82 16.7212 142.712 17.0835 141.828 17.8079C140.954 18.5323 140.299 19.5071 139.862 20.7322C139.436 21.9467 139.223 23.305 139.223 24.8072C139.223 26.2987 139.436 27.6516 139.862 28.8661C140.299 30.0806 140.954 31.0501 141.828 31.7745C142.712 32.4883 143.82 32.8452 145.151 32.8452Z" fill="white"/>
</svg>
