<svg width="12" height="16" viewBox="0 0 12 16" fill="none" xmlns="http://www.w3.org/2000/svg"><path fill-rule="evenodd" clip-rule="evenodd" d="M0 2.5A2.5 2.5 0 0 1 2.5 0h8.75a.75.75 0 0 1 .75.75v12.5a.75.75 0 0 1-.75.75h-2.5a.75.75 0 1 1 0-1.5h1.75v-2h-8a1 1 0 0 0-.714 1.7.75.75 0 0 1-1.072 1.05A2.495 2.495 0 0 1 0 11.5v-9Zm10.5-1V9h-8c-.356 0-.694.074-1 .208V2.5a1 1 0 0 1 1-1h8ZM3 12.25v3.25a.25.25 0 0 0 .4.2l1.45-1.087a.25.25 0 0 1 .3 0L6.6 15.7a.25.25 0 0 0 .4-.2v-3.25a.25.25 0 0 0-.25-.25h-3.5a.25.25 0 0 0-.25.25Z" fill="currentColor"></path></svg>