<?xml version="1.0" encoding="utf-8"?><!-- Uploaded to: SVG Repo, www.svgrepo.com, Generator: SVG Repo Mixer Tools -->
<svg fill="#000000" width="800px" height="800px" viewBox="0 0 24 24" id="work" data-name="Flat Line" xmlns="http://www.w3.org/2000/svg" class="icon flat-line"><path id="secondary" d="M20.81,7.45,19,11.58A4,4,0,0,1,15.36,14H13v1H11V14H8.64A4,4,0,0,1,5,11.58L3.19,7.45A1,1,0,0,0,3,8V20a1,1,0,0,0,1,1H20a1,1,0,0,0,1-1V8A1,1,0,0,0,20.81,7.45Z" style="fill: rgb(44, 169, 188); stroke-width: 2;"></path><path id="primary" d="M11,14H8.64A4,4,0,0,1,5,11.58L3.18,7.43A1,1,0,0,1,4,7H20a1,1,0,0,1,.82.43L19,11.58A4,4,0,0,1,15.36,14H13" style="fill: none; stroke: rgb(0, 0, 0); stroke-linecap: round; stroke-linejoin: round; stroke-width: 2;"></path><path id="primary-2" data-name="primary" d="M16,7H8V4A1,1,0,0,1,9,3h6a1,1,0,0,1,1,1Zm5,13V8a1,1,0,0,0-1-1H4A1,1,0,0,0,3,8V20a1,1,0,0,0,1,1H20A1,1,0,0,0,21,20Zm-8-7H11v2h2Z" style="fill: none; stroke: rgb(0, 0, 0); stroke-linecap: round; stroke-linejoin: round; stroke-width: 2;"></path></svg>